<mxfile host="65bd71144e">
    <diagram id="B72jt4DuuR0h1J_GcKBN" name="페이지-1">
        <mxGraphModel dx="1107" dy="462" grid="1" gridSize="10" guides="1" tooltips="1" connect="1" arrows="1" fold="1" page="1" pageScale="1" pageWidth="827" pageHeight="1169" math="0" shadow="0">
            <root>
                <mxCell id="0"/>
                <mxCell id="1" parent="0"/>
                <mxCell id="3" style="edgeStyle=none;html=1;" edge="1" parent="1" source="2" target="4">
                    <mxGeometry relative="1" as="geometry">
                        <mxPoint x="170" y="200" as="targetPoint"/>
                    </mxGeometry>
                </mxCell>
                <mxCell id="2" value="메인 화면&lt;br&gt;(랜덤 명언 띄우기)" style="rounded=0;whiteSpace=wrap;html=1;" vertex="1" parent="1">
                    <mxGeometry x="90" y="80" width="160" height="80" as="geometry"/>
                </mxCell>
                <mxCell id="5" style="edgeStyle=none;html=1;exitX=0.25;exitY=1;exitDx=0;exitDy=0;" edge="1" parent="1" source="4" target="6">
                    <mxGeometry relative="1" as="geometry">
                        <mxPoint x="90" y="320" as="targetPoint"/>
                    </mxGeometry>
                </mxCell>
                <mxCell id="7" style="edgeStyle=none;html=1;exitX=0.75;exitY=1;exitDx=0;exitDy=0;" edge="1" parent="1" source="4" target="8">
                    <mxGeometry relative="1" as="geometry">
                        <mxPoint x="250" y="320" as="targetPoint"/>
                    </mxGeometry>
                </mxCell>
                <mxCell id="4" value="명언 목록" style="rounded=0;whiteSpace=wrap;html=1;" vertex="1" parent="1">
                    <mxGeometry x="110" y="200" width="120" height="60" as="geometry"/>
                </mxCell>
                <mxCell id="6" value="명언 수정" style="rounded=0;whiteSpace=wrap;html=1;" vertex="1" parent="1">
                    <mxGeometry x="10" y="320" width="120" height="60" as="geometry"/>
                </mxCell>
                <mxCell id="8" value="명언 제거" style="rounded=0;whiteSpace=wrap;html=1;" vertex="1" parent="1">
                    <mxGeometry x="210" y="320" width="120" height="60" as="geometry"/>
                </mxCell>
                <mxCell id="9" value="사이트맵" style="text;html=1;align=center;verticalAlign=middle;resizable=0;points=[];autosize=1;strokeColor=none;fillColor=none;" vertex="1" parent="1">
                    <mxGeometry x="140" y="30" width="60" height="20" as="geometry"/>
                </mxCell>
                <mxCell id="10" value="예외상황 1. 명언 목록의 길이가 0일때" style="text;html=1;align=center;verticalAlign=middle;resizable=0;points=[];autosize=1;strokeColor=none;fillColor=none;" vertex="1" parent="1">
                    <mxGeometry x="540" y="30" width="190" height="20" as="geometry"/>
                </mxCell>
                <mxCell id="12" style="edgeStyle=none;html=1;exitX=0;exitY=0.5;exitDx=0;exitDy=0;" edge="1" parent="1" source="11" target="13">
                    <mxGeometry relative="1" as="geometry">
                        <mxPoint x="520" y="120" as="targetPoint"/>
                    </mxGeometry>
                </mxCell>
                <mxCell id="16" style="edgeStyle=none;html=1;exitX=0.5;exitY=1;exitDx=0;exitDy=0;" edge="1" parent="1" source="11" target="17">
                    <mxGeometry relative="1" as="geometry">
                        <mxPoint x="640" y="200" as="targetPoint"/>
                    </mxGeometry>
                </mxCell>
                <mxCell id="11" value="명언 목록의 길이가 0일때" style="rhombus;whiteSpace=wrap;html=1;" vertex="1" parent="1">
                    <mxGeometry x="560" y="80" width="160" height="80" as="geometry"/>
                </mxCell>
                <mxCell id="13" value="메인 화면에서&lt;br&gt;랜덤 명언 출력" style="rounded=0;whiteSpace=wrap;html=1;" vertex="1" parent="1">
                    <mxGeometry x="400" y="90" width="120" height="60" as="geometry"/>
                </mxCell>
                <mxCell id="14" value="N" style="text;html=1;align=center;verticalAlign=middle;resizable=0;points=[];autosize=1;strokeColor=none;fillColor=none;" vertex="1" parent="1">
                    <mxGeometry x="530" y="90" width="20" height="20" as="geometry"/>
                </mxCell>
                <mxCell id="15" value="Y" style="text;html=1;align=center;verticalAlign=middle;resizable=0;points=[];autosize=1;strokeColor=none;fillColor=none;" vertex="1" parent="1">
                    <mxGeometry x="650" y="170" width="20" height="20" as="geometry"/>
                </mxCell>
                <mxCell id="17" value="메인 화면에서&lt;br&gt;명언이 없습니다&lt;br&gt;출력" style="rounded=0;whiteSpace=wrap;html=1;" vertex="1" parent="1">
                    <mxGeometry x="580" y="200" width="120" height="60" as="geometry"/>
                </mxCell>
                <mxCell id="18" value="예외상황 2. 네트워크 연결 오류로 인하여 명언을 가져오지 못함" style="text;html=1;align=center;verticalAlign=middle;resizable=0;points=[];autosize=1;strokeColor=none;fillColor=none;" vertex="1" parent="1">
                    <mxGeometry x="480" y="310" width="310" height="20" as="geometry"/>
                </mxCell>
                <mxCell id="19" style="edgeStyle=none;html=1;exitX=0;exitY=0.5;exitDx=0;exitDy=0;" edge="1" parent="1" source="21" target="22">
                    <mxGeometry relative="1" as="geometry">
                        <mxPoint x="520" y="400" as="targetPoint"/>
                    </mxGeometry>
                </mxCell>
                <mxCell id="20" style="edgeStyle=none;html=1;exitX=0.5;exitY=1;exitDx=0;exitDy=0;" edge="1" parent="1" source="21" target="25">
                    <mxGeometry relative="1" as="geometry">
                        <mxPoint x="640" y="480" as="targetPoint"/>
                    </mxGeometry>
                </mxCell>
                <mxCell id="21" value="네트워크 오류로&lt;br&gt;명언을 못가져 옴" style="rhombus;whiteSpace=wrap;html=1;" vertex="1" parent="1">
                    <mxGeometry x="560" y="360" width="160" height="80" as="geometry"/>
                </mxCell>
                <mxCell id="22" value="메인 화면에서&lt;br&gt;랜덤 명언 출력" style="rounded=0;whiteSpace=wrap;html=1;" vertex="1" parent="1">
                    <mxGeometry x="400" y="370" width="120" height="60" as="geometry"/>
                </mxCell>
                <mxCell id="23" value="N" style="text;html=1;align=center;verticalAlign=middle;resizable=0;points=[];autosize=1;strokeColor=none;fillColor=none;" vertex="1" parent="1">
                    <mxGeometry x="530" y="370" width="20" height="20" as="geometry"/>
                </mxCell>
                <mxCell id="24" value="Y" style="text;html=1;align=center;verticalAlign=middle;resizable=0;points=[];autosize=1;strokeColor=none;fillColor=none;" vertex="1" parent="1">
                    <mxGeometry x="650" y="450" width="20" height="20" as="geometry"/>
                </mxCell>
                <mxCell id="25" value="메인 화면에서&lt;br&gt;명언을 불러오지 &lt;br&gt;못했습니다&lt;br&gt;출력" style="rounded=0;whiteSpace=wrap;html=1;" vertex="1" parent="1">
                    <mxGeometry x="580" y="480" width="120" height="60" as="geometry"/>
                </mxCell>
            </root>
        </mxGraphModel>
    </diagram>
</mxfile>